# Blender v2.90.0 OBJ File: 'CSP - T08 - Posters.blend'
# www.blender.org
mtllib RuN_Ac_sign_model.mtl
o RuN_Ac_Sign
v 1.530734 -3.695518 -0.025000
v 1.530734 -3.695518 0.025000
v -1.530734 -3.695518 -0.025000
v -1.530733 -3.695518 0.025000
v -3.695518 -1.530734 -0.025000
v -3.695518 -1.530734 0.025000
v -3.695518 1.530734 -0.025000
v -3.695518 1.530734 0.025000
v -1.530734 3.695518 -0.025000
v -1.530733 3.695518 0.025000
v 1.530734 3.695518 -0.025000
v 1.530734 3.695518 0.025000
v 3.695518 1.530734 -0.025000
v 3.695518 1.530734 0.025000
v 3.695518 -1.530733 -0.025000
v 3.695519 -1.530733 0.025000
vt 0.650000 0.050000
vt 0.650000 0.200000
vt 0.612500 0.200000
vt 0.612500 0.050000
vt 0.575000 0.200000
vt 0.575000 0.050000
vt 0.537500 0.200000
vt 0.537500 0.050000
vt 0.500000 0.200000
vt 0.500000 0.050000
vt 0.462500 0.200000
vt 0.462500 0.050000
vt 0.425000 0.200000
vt 0.425000 0.050000
vt 0.292433 -0.001112
vt 0.707567 -0.001112
vt 1.001112 0.292433
vt 1.001112 0.707568
vt 0.707567 1.001112
vt 0.292433 1.001112
vt -0.001112 0.707567
vt -0.001112 0.292433
vt 0.387500 0.200000
vt 0.387500 0.050000
vt 0.350000 0.200000
vt 0.350000 0.050000
vt 0.707567 -0.001112
vt 0.292433 -0.001112
vt -0.001112 0.292433
vt -0.001112 0.707567
vt 0.292432 1.001112
vt 0.707567 1.001112
vt 1.001112 0.707568
vt 1.001112 0.292433
vn 0.0000 -1.0000 0.0000
vn -0.7071 -0.7071 0.0000
vn -1.0000 0.0000 0.0000
vn -0.7071 0.7071 0.0000
vn 0.0000 1.0000 -0.0000
vn 0.7071 0.7071 -0.0000
vn 0.0000 -0.0000 1.0000
vn 1.0000 0.0000 -0.0000
vn 0.7071 -0.7071 -0.0000
vn -0.0000 0.0000 -1.0000
usemtl RuN_Ac_Material
s off
f 1/1/1 2/2/1 4/3/1 3/4/1
f 3/4/2 4/3/2 6/5/2 5/6/2
f 5/6/3 6/5/3 8/7/3 7/8/3
f 7/8/4 8/7/4 10/9/4 9/10/4
f 9/10/5 10/9/5 12/11/5 11/12/5
f 11/12/6 12/11/6 14/13/6 13/14/6
f 4/15/7 2/16/7 16/17/7 14/18/7 12/19/7 10/20/7 8/21/7 6/22/7
f 13/14/8 14/13/8 16/23/8 15/24/8
f 15/24/9 16/23/9 2/25/9 1/26/9
f 1/27/10 3/28/10 5/29/10 7/30/10 9/31/10 11/32/10 13/33/10 15/34/10
