# Blender v2.90.0 OBJ File: 'CSP - T08 - Fixed Models.blend'
# www.blender.org
mtllib puzzle_piece.mtl
o puzzle_piece_puzzle_piece
v 0.125000 -0.039700 -0.002500
v 0.125000 -0.085300 -0.002500
v -0.125000 -0.085300 -0.002500
v -0.125000 -0.039700 -0.002500
v -0.113650 -0.038935 -0.002500
v -0.102735 -0.036680 -0.002500
v -0.092680 -0.033010 -0.002500
v -0.083865 -0.028070 -0.002500
v -0.076630 -0.022055 -0.002500
v -0.071250 -0.015190 -0.002500
v -0.067940 -0.007745 -0.002500
v -0.066825 -0.000000 -0.002500
v -0.067940 0.007745 -0.002500
v -0.071250 0.015190 -0.002500
v -0.076630 0.022055 -0.002500
v -0.083865 0.028070 -0.002500
v -0.092680 0.033010 -0.002500
v -0.102735 0.036680 -0.002500
v -0.113650 0.038935 -0.002500
v -0.125000 0.039700 -0.002500
v -0.125000 0.085300 -0.002500
v 0.125000 0.085300 -0.002500
v 0.125000 0.039700 -0.002500
v 0.113650 0.038935 -0.002500
v 0.102735 0.036680 -0.002500
v 0.092680 0.033010 -0.002500
v 0.083865 0.028070 -0.002500
v 0.076630 0.022055 -0.002500
v 0.071250 0.015190 -0.002500
v 0.067940 0.007745 -0.002500
v 0.066825 0.000000 -0.002500
v 0.067940 -0.007745 -0.002500
v 0.071250 -0.015190 -0.002500
v 0.076630 -0.022055 -0.002500
v 0.083865 -0.028070 -0.002500
v 0.092680 -0.033010 -0.002500
v 0.102735 -0.036680 -0.002500
v 0.113650 -0.038935 -0.002500
v 0.125000 0.085300 0.002500
v 0.125000 0.039700 0.002500
v 0.125000 -0.085300 0.002500
v 0.125000 -0.039700 0.002500
v -0.125000 0.085300 0.002500
v -0.125000 0.039700 0.002500
v -0.113650 0.038935 0.002500
v -0.102735 0.036680 0.002500
v -0.092680 0.033010 0.002500
v -0.083865 0.028070 0.002500
v -0.076630 0.022055 0.002500
v -0.071250 0.015190 0.002500
v -0.067940 0.007745 0.002500
v -0.066825 -0.000000 0.002500
v -0.067940 -0.007745 0.002500
v -0.071250 -0.015190 0.002500
v -0.076630 -0.022055 0.002500
v -0.083865 -0.028070 0.002500
v -0.092680 -0.033010 0.002500
v -0.102735 -0.036680 0.002500
v -0.113650 -0.038935 0.002500
v -0.125000 -0.039700 0.002500
v -0.125000 -0.085300 0.002500
v 0.113650 -0.038935 0.002500
v 0.102735 -0.036680 0.002500
v 0.092680 -0.033010 0.002500
v 0.083865 -0.028070 0.002500
v 0.076630 -0.022055 0.002500
v 0.071250 -0.015190 0.002500
v 0.067940 -0.007745 0.002500
v 0.066825 0.000000 0.002500
v 0.067940 0.007745 0.002500
v 0.071250 0.015190 0.002500
v 0.076630 0.022055 0.002500
v 0.083865 0.028070 0.002500
v 0.092680 0.033010 0.002500
v 0.102735 0.036680 0.002500
v 0.113650 0.038935 0.002500
v -0.000000 0.125000 -0.002500
v -0.000000 0.125000 0.002500
v 0.011350 0.124235 0.002500
v 0.011350 0.124235 -0.002500
v 0.022265 0.121980 0.002500
v 0.022265 0.121980 -0.002500
v 0.032320 0.118310 0.002500
v 0.032320 0.118310 -0.002500
v 0.041135 0.113370 0.002500
v 0.041135 0.113370 -0.002500
v 0.048370 0.107355 0.002500
v 0.048370 0.107355 -0.002500
v 0.053750 0.100495 0.002500
v 0.053750 0.100495 -0.002500
v 0.057060 0.093045 0.002500
v 0.057060 0.093045 -0.002500
v 0.058175 0.085300 0.002500
v 0.058175 0.085300 -0.002500
v 0.057060 0.077555 0.002500
v 0.057060 0.077555 -0.002500
v 0.053750 0.070110 0.002500
v 0.053750 0.070110 -0.002500
v 0.048370 0.063245 0.002500
v 0.048370 0.063245 -0.002500
v 0.041135 0.057230 0.002500
v 0.041135 0.057230 -0.002500
v 0.032320 0.052290 0.002500
v 0.032320 0.052290 -0.002500
v 0.022265 0.048625 0.002500
v 0.022265 0.048625 -0.002500
v 0.011350 0.046365 0.002500
v 0.011350 0.046365 -0.002500
v -0.000000 0.045600 0.002500
v -0.000000 0.045600 -0.002500
v -0.011350 0.046365 0.002500
v -0.011350 0.046365 -0.002500
v -0.022265 0.048625 0.002500
v -0.022265 0.048625 -0.002500
v -0.032320 0.052290 0.002500
v -0.032320 0.052290 -0.002500
v -0.041135 0.057230 0.002500
v -0.041135 0.057230 -0.002500
v -0.048370 0.063245 0.002500
v -0.048370 0.063245 -0.002500
v -0.053750 0.070110 0.002500
v -0.053750 0.070110 -0.002500
v -0.057060 0.077555 0.002500
v -0.057060 0.077555 -0.002500
v -0.058175 0.085300 0.002500
v -0.058175 0.085300 -0.002500
v -0.057060 0.093045 0.002500
v -0.057060 0.093045 -0.002500
v -0.053750 0.100495 0.002500
v -0.053750 0.100495 -0.002500
v -0.048370 0.107355 0.002500
v -0.048370 0.107355 -0.002500
v -0.041135 0.113370 0.002500
v -0.041135 0.113370 -0.002500
v -0.032320 0.118310 0.002500
v -0.032320 0.118310 -0.002500
v -0.022265 0.121980 0.002500
v -0.022265 0.121980 -0.002500
v -0.011350 0.124235 -0.002500
v -0.011350 0.124235 0.002500
v 0.000000 -0.045600 -0.002500
v 0.000000 -0.045600 0.002500
v 0.011350 -0.046365 0.002500
v 0.011350 -0.046365 -0.002500
v 0.022265 -0.048625 0.002500
v 0.022265 -0.048625 -0.002500
v 0.032320 -0.052290 0.002500
v 0.032320 -0.052290 -0.002500
v 0.041135 -0.057230 0.002500
v 0.041135 -0.057230 -0.002500
v 0.048370 -0.063245 0.002500
v 0.048370 -0.063245 -0.002500
v 0.053750 -0.070110 0.002500
v 0.053750 -0.070110 -0.002500
v 0.057060 -0.077555 0.002500
v 0.057060 -0.077555 -0.002500
v 0.058175 -0.085300 0.002500
v 0.058175 -0.085300 -0.002500
v 0.057060 -0.093045 0.002500
v 0.057060 -0.093045 -0.002500
v 0.053750 -0.100495 0.002500
v 0.053750 -0.100495 -0.002500
v 0.048370 -0.107355 0.002500
v 0.048370 -0.107355 -0.002500
v 0.041135 -0.113370 0.002500
v 0.041135 -0.113370 -0.002500
v 0.032320 -0.118310 0.002500
v 0.032320 -0.118310 -0.002500
v 0.022265 -0.121980 0.002500
v 0.022265 -0.121980 -0.002500
v 0.011350 -0.124235 0.002500
v 0.011350 -0.124235 -0.002500
v 0.000000 -0.125000 0.002500
v 0.000000 -0.125000 -0.002500
v -0.011350 -0.124235 0.002500
v -0.011350 -0.124235 -0.002500
v -0.022265 -0.121980 0.002500
v -0.022265 -0.121980 -0.002500
v -0.032320 -0.118310 0.002500
v -0.032320 -0.118310 -0.002500
v -0.041135 -0.113370 0.002500
v -0.041135 -0.113370 -0.002500
v -0.048370 -0.107355 0.002500
v -0.048370 -0.107355 -0.002500
v -0.053750 -0.100495 0.002500
v -0.053750 -0.100495 -0.002500
v -0.057060 -0.093045 0.002500
v -0.057060 -0.093045 -0.002500
v -0.058175 -0.085300 0.002500
v -0.058175 -0.085300 -0.002500
v -0.057060 -0.077555 0.002500
v -0.057060 -0.077555 -0.002500
v -0.053750 -0.070110 0.002500
v -0.053750 -0.070110 -0.002500
v -0.048370 -0.063245 0.002500
v -0.048370 -0.063245 -0.002500
v -0.041135 -0.057230 0.002500
v -0.041135 -0.057230 -0.002500
v -0.032320 -0.052290 0.002500
v -0.032320 -0.052290 -0.002500
v -0.022265 -0.048625 0.002500
v -0.022265 -0.048625 -0.002500
v -0.011350 -0.046365 0.002500
v -0.011350 -0.046365 -0.002500
vt 0.825264 0.326886
vt 0.799543 0.326886
vt 0.799543 0.230659
vt 0.825264 0.230659
vt 0.825694 0.235028
vt 0.826968 0.239228
vt 0.829038 0.243100
vt 0.831822 0.246493
vt 0.835216 0.249278
vt 0.839087 0.251347
vt 0.843288 0.252621
vt 0.847656 0.253052
vt 0.852025 0.252621
vt 0.856225 0.251347
vt 0.860097 0.249278
vt 0.863490 0.246493
vt 0.866275 0.243100
vt 0.868344 0.239228
vt 0.869619 0.235028
vt 0.870049 0.230659
vt 0.895770 0.230659
vt 0.895770 0.326886
vt 0.870049 0.326886
vt 0.869619 0.322518
vt 0.868344 0.318317
vt 0.866275 0.314446
vt 0.863490 0.311052
vt 0.860097 0.308268
vt 0.856225 0.306198
vt 0.852025 0.304924
vt 0.847656 0.304494
vt 0.843288 0.304924
vt 0.839087 0.306198
vt 0.835216 0.308268
vt 0.831822 0.311052
vt 0.829038 0.314446
vt 0.826968 0.318317
vt 0.825694 0.322518
vt 0.846981 0.731789
vt 0.866308 0.738395
vt 0.936659 0.827534
vt 0.890429 0.868164
vt 0.792812 0.761012
vt 0.838429 0.732912
vt 0.838129 0.731241
vt 0.804749 0.790011
vt 0.870049 0.423114
vt 0.895770 0.423114
vt 0.895770 0.519341
vt 0.870049 0.519341
vt 0.869619 0.514972
vt 0.868344 0.510772
vt 0.866275 0.506900
vt 0.863490 0.503507
vt 0.860097 0.500722
vt 0.856225 0.498653
vt 0.852025 0.497379
vt 0.847656 0.496948
vt 0.843288 0.497379
vt 0.839087 0.498653
vt 0.835216 0.500722
vt 0.831822 0.503507
vt 0.829038 0.506900
vt 0.826968 0.510772
vt 0.825694 0.514972
vt 0.825264 0.519341
vt 0.799543 0.519341
vt 0.799543 0.423114
vt 0.825264 0.423114
vt 0.825694 0.427482
vt 0.826968 0.431683
vt 0.829037 0.435554
vt 0.831822 0.438948
vt 0.835216 0.441732
vt 0.839087 0.443802
vt 0.843288 0.445076
vt 0.847656 0.445506
vt 0.852025 0.445076
vt 0.856225 0.443802
vt 0.860097 0.441732
vt 0.863490 0.438948
vt 0.866275 0.435554
vt 0.868344 0.431683
vt 0.869619 0.427482
vt 0.876280 0.593477
vt 0.936659 0.598165
vt 0.863356 0.718784
vt 0.856356 0.707890
vt 0.830933 0.727715
vt 0.830890 0.729157
vt 0.805423 0.683204
vt 0.825193 0.669626
vt 0.838851 0.731785
vt 0.803766 0.799516
vt 0.839481 0.732443
vt 0.803681 0.809490
vt 0.840114 0.732858
vt 0.804589 0.819857
vt 0.840651 0.732981
vt 0.806578 0.830525
vt 0.841172 0.732580
vt 0.809587 0.841469
vt 0.841704 0.731591
vt 0.813778 0.852562
vt 0.842175 0.730026
vt 0.819181 0.863693
vt 0.842532 0.727848
vt 0.825810 0.874760
vt 0.842766 0.725042
vt 0.833657 0.885662
vt 0.842866 0.721562
vt 0.842706 0.896314
vt 0.842722 0.717285
vt 0.852937 0.906639
vt 0.842110 0.712648
vt 0.864319 0.916573
vt 0.841154 0.707188
vt 0.876836 0.926054
vt 0.842823 0.716192
vt 0.884077 0.905974
vt 0.844815 0.724445
vt 0.889062 0.886371
vt 0.831606 0.636870
vt 0.834453 0.631712
vt 0.844512 0.705314
vt 0.842887 0.706988
vt 0.841199 0.708980
vt 0.829487 0.641933
vt 0.839550 0.711255
vt 0.827607 0.646944
vt 0.837881 0.713872
vt 0.826187 0.651840
vt 0.836184 0.716814
vt 0.825204 0.656588
vt 0.834461 0.720086
vt 0.824634 0.661163
vt 0.832711 0.723708
vt 0.824452 0.665539
vt 0.855296 0.704723
vt 0.869219 0.597704
vt 0.853832 0.702965
vt 0.862709 0.602080
vt 0.852285 0.702127
vt 0.856696 0.606637
vt 0.850713 0.701944
vt 0.851190 0.611364
vt 0.849197 0.702237
vt 0.846188 0.616321
vt 0.847660 0.702926
vt 0.841733 0.621394
vt 0.846101 0.703960
vt 0.837824 0.626539
vt 0.488061 0.503127
vt 0.488061 0.690407
vt 0.476356 0.690407
vt 0.476356 0.503127
vt 0.464651 0.690407
vt 0.464651 0.503127
vt 0.452946 0.690407
vt 0.452946 0.503127
vt 0.441241 0.690407
vt 0.441241 0.503127
vt 0.429536 0.690407
vt 0.429536 0.503127
vt 0.417831 0.690407
vt 0.417831 0.503127
vt 0.406126 0.690407
vt 0.406126 0.503127
vt 0.394421 0.690407
vt 0.394421 0.503127
vt 0.382716 0.690407
vt 0.382716 0.503127
vt 0.371011 0.690407
vt 0.371011 0.503127
vt 0.359306 0.690407
vt 0.359306 0.503127
vt 0.347601 0.690407
vt 0.347601 0.503127
vt 0.335896 0.690407
vt 0.335896 0.503127
vt 0.324191 0.690407
vt 0.324191 0.503127
vt 0.312486 0.690407
vt 0.312486 0.503127
vt 0.300781 0.690407
vt 0.300781 0.503127
vt 0.289076 0.690407
vt 0.289076 0.503127
vt 0.277371 0.690407
vt 0.277371 0.503127
vt 0.265666 0.690407
vt 0.265666 0.503127
vt 0.253961 0.690407
vt 0.253961 0.503127
vt 0.242256 0.690407
vt 0.242256 0.503127
vt 0.230551 0.690407
vt 0.230551 0.503127
vt 0.218846 0.690407
vt 0.218846 0.503127
vt 0.207141 0.690407
vt 0.207141 0.503127
vt 0.195436 0.690407
vt 0.195436 0.503127
vt 0.183731 0.690407
vt 0.183731 0.503127
vt 0.172026 0.690407
vt 0.172026 0.503127
vt 0.160321 0.690407
vt 0.160321 0.503127
vt 0.148616 0.690407
vt 0.148616 0.503127
vt 0.136912 0.690407
vt 0.136912 0.503127
vt 0.394421 0.499382
vt 0.411959 0.497654
vt 0.428822 0.492539
vt 0.444364 0.484232
vt 0.457986 0.473052
vt 0.469166 0.459430
vt 0.477473 0.443888
vt 0.482588 0.427025
vt 0.484315 0.409487
vt 0.304527 0.409487
vt 0.306254 0.427025
vt 0.311370 0.443888
vt 0.319677 0.459430
vt 0.330856 0.473052
vt 0.344479 0.484232
vt 0.360020 0.492539
vt 0.376884 0.497654
vt 0.125207 0.690407
vt 0.125207 0.503127
vt 0.113502 0.690407
vt 0.113502 0.503127
vt 0.488061 0.503127
vt 0.488061 0.690407
vt 0.476356 0.690407
vt 0.476356 0.503127
vt 0.464651 0.690407
vt 0.464651 0.503127
vt 0.442934 0.738594
vt 0.442934 0.913975
vt 0.431972 0.913975
vt 0.431972 0.738594
vt 0.421011 0.913975
vt 0.421011 0.738594
vt 0.410050 0.913975
vt 0.410050 0.738594
vt 0.399088 0.913975
vt 0.399088 0.738594
vt 0.388127 0.913975
vt 0.388127 0.738594
vt 0.377166 0.913975
vt 0.377166 0.738594
vt 0.366205 0.913975
vt 0.366205 0.738594
vt 0.355243 0.913975
vt 0.355243 0.738594
vt 0.371011 0.503127
vt 0.371011 0.690407
vt 0.359306 0.690407
vt 0.359306 0.503127
vt 0.347601 0.690407
vt 0.347601 0.503127
vt 0.335896 0.690407
vt 0.335896 0.503127
vt 0.324191 0.690407
vt 0.324191 0.503127
vt 0.312486 0.690407
vt 0.312486 0.503127
vt 0.300781 0.690407
vt 0.300781 0.503127
vt 0.289076 0.690407
vt 0.289076 0.503127
vt 0.277371 0.690407
vt 0.277371 0.503127
vt 0.265666 0.690407
vt 0.265666 0.503127
vt 0.253961 0.690407
vt 0.253961 0.503127
vt 0.242256 0.690407
vt 0.242256 0.503127
vt 0.230551 0.690407
vt 0.230551 0.503127
vt 0.218846 0.690407
vt 0.218846 0.503127
vt 0.207141 0.690407
vt 0.207141 0.503127
vt 0.195436 0.690407
vt 0.195436 0.503127
vt 0.183731 0.690407
vt 0.183731 0.503127
vt 0.172026 0.690407
vt 0.172026 0.503127
vt 0.160321 0.690407
vt 0.160321 0.503127
vt 0.148616 0.690407
vt 0.148616 0.503127
vt 0.136912 0.690407
vt 0.136912 0.503127
vt 0.297036 0.409487
vt 0.117247 0.409487
vt 0.118974 0.391950
vt 0.124090 0.375086
vt 0.132397 0.359545
vt 0.143577 0.345922
vt 0.157199 0.334743
vt 0.172740 0.326436
vt 0.189604 0.321320
vt 0.207141 0.319593
vt 0.224679 0.321320
vt 0.241542 0.326436
vt 0.257084 0.334743
vt 0.270706 0.345922
vt 0.281886 0.359545
vt 0.290193 0.375086
vt 0.295308 0.391950
vt 0.125207 0.690407
vt 0.125207 0.503127
vt 0.113502 0.690407
vt 0.113502 0.503127
vt 0.304527 0.409487
vt 0.484315 0.409487
vt 0.482588 0.391950
vt 0.477473 0.375086
vt 0.469166 0.359545
vt 0.457986 0.345922
vt 0.444364 0.334743
vt 0.428822 0.326436
vt 0.411959 0.321320
vt 0.394421 0.319593
vt 0.376884 0.321320
vt 0.360020 0.326436
vt 0.344479 0.334743
vt 0.330856 0.345922
vt 0.319677 0.359545
vt 0.311370 0.375086
vt 0.306254 0.391950
vt 0.224679 0.497654
vt 0.207141 0.499382
vt 0.189604 0.497654
vt 0.172740 0.492539
vt 0.157199 0.484232
vt 0.143577 0.473052
vt 0.132397 0.459430
vt 0.124090 0.443888
vt 0.118974 0.427025
vt 0.117247 0.409487
vt 0.297036 0.409487
vt 0.295308 0.427025
vt 0.290193 0.443888
vt 0.281886 0.459430
vt 0.270706 0.473052
vt 0.257084 0.484232
vt 0.241542 0.492539
vn 0.0000 0.0000 -1.0000
vn 1.0000 0.0000 0.0000
vn -0.0000 -0.0000 1.0000
vn -1.0000 0.0000 0.0000
vn 0.0000 -1.0000 0.0000
vn -0.0000 1.0000 0.0000
vn 0.0672 0.9977 0.0000
vn 0.2028 0.9792 0.0000
vn 0.3426 0.9395 -0.0000
vn 0.4889 0.8724 0.0000
vn 0.6393 0.7690 0.0000
vn 0.7871 0.6168 0.0000
vn 0.9138 0.4063 0.0000
vn 0.9897 0.1428 0.0000
vn 0.9897 -0.1428 -0.0000
vn 0.9138 -0.4063 0.0000
vn 0.7871 -0.6168 0.0000
vn 0.6393 -0.7690 0.0000
vn 0.4889 -0.8724 0.0000
vn 0.3426 -0.9395 -0.0000
vn 0.2028 -0.9792 0.0000
vn 0.0672 -0.9977 0.0000
vn -0.9897 0.1428 0.0000
vn -0.9138 0.4063 0.0000
vn -0.7871 0.6168 0.0000
vn -0.6393 0.7690 -0.0000
vn -0.4889 0.8724 -0.0000
vn -0.3426 0.9395 0.0000
vn -0.2028 0.9792 -0.0000
vn -0.0672 0.9977 0.0000
vn -0.0672 -0.9977 0.0000
vn -0.2028 -0.9792 -0.0000
vn -0.3426 -0.9395 0.0000
vn -0.4889 -0.8724 -0.0000
vn -0.6393 -0.7690 -0.0000
vn -0.7871 -0.6168 0.0000
vn -0.9138 -0.4063 0.0000
vn -0.9897 -0.1428 0.0000
vn 0.2027 0.9793 0.0000
vn 0.3429 0.9394 0.0000
vn 0.7873 0.6166 0.0000
vn 0.9137 0.4063 0.0000
vn 0.3425 -0.9395 0.0000
vn -0.3425 -0.9395 0.0000
vn -0.9137 0.4063 -0.0000
vn -0.7873 0.6166 -0.0000
vn -0.3429 0.9394 0.0000
vn -0.2027 0.9793 0.0000
vn 0.3425 0.9395 0.0000
vn 0.9137 -0.4063 0.0000
vn 0.7873 -0.6166 0.0000
vn 0.3429 -0.9394 -0.0000
vn 0.2027 -0.9793 0.0000
vn -0.2027 -0.9793 -0.0000
vn -0.3429 -0.9394 0.0000
vn -0.7873 -0.6166 -0.0000
vn -0.9137 -0.4063 0.0000
vn -0.3425 0.9395 0.0000
usemtl Puzzle_Piece
s 1
f 1/1/1 2/2/1 3/3/1 4/4/1 5/5/1 6/6/1 7/7/1 8/8/1 9/9/1 10/10/1 11/11/1 12/12/1 13/13/1 14/14/1 15/15/1 16/16/1 17/17/1 18/18/1 19/19/1 20/20/1 21/21/1 22/22/1 23/23/1 24/24/1 25/25/1 26/26/1 27/27/1 28/28/1 29/29/1 30/30/1 31/31/1 32/32/1 33/33/1 34/34/1 35/35/1 36/36/1 37/37/1 38/38/1
f 23/39/2 22/40/2 39/41/2 40/42/2
f 41/43/2 2/44/2 1/45/2 42/46/2
f 40/47/3 39/48/3 43/49/3 44/50/3 45/51/3 46/52/3 47/53/3 48/54/3 49/55/3 50/56/3 51/57/3 52/58/3 53/59/3 54/60/3 55/61/3 56/62/3 57/63/3 58/64/3 59/65/3 60/66/3 61/67/3 41/68/3 42/69/3 62/70/3 63/71/3 64/72/3 65/73/3 66/74/3 67/75/3 68/76/3 69/77/3 70/78/3 71/79/3 72/80/3 73/81/3 74/82/3 75/83/3 76/84/3
f 44/85/4 43/86/4 21/87/4 20/88/4
f 4/89/4 3/90/4 61/91/4 60/92/4
f 2/44/5 41/43/5 61/91/5 3/90/5
f 39/41/6 22/40/6 21/87/6 43/86/6
f 1/45/7 38/93/7 62/94/7 42/46/7
f 38/93/8 37/95/8 63/96/8 62/94/8
f 37/95/9 36/97/9 64/98/9 63/96/9
f 36/97/10 35/99/10 65/100/10 64/98/10
f 34/101/11 66/102/11 65/100/11 35/99/11
f 33/103/12 67/104/12 66/102/12 34/101/12
f 32/105/13 68/106/13 67/104/13 33/103/13
f 31/107/14 69/108/14 68/106/14 32/105/14
f 30/109/15 70/110/15 69/108/15 31/107/15
f 29/111/16 71/112/16 70/110/16 30/109/16
f 28/113/17 72/114/17 71/112/17 29/111/17
f 27/115/18 73/116/18 72/114/18 28/113/18
f 26/117/19 74/118/19 73/116/19 27/115/19
f 25/119/20 75/120/20 74/118/20 26/117/20
f 24/121/21 76/122/21 75/120/21 25/119/21
f 40/42/22 76/122/22 24/121/22 23/39/22
f 53/123/23 52/124/23 12/125/23 11/126/23
f 11/126/24 10/127/24 54/128/24 53/123/24
f 10/127/25 9/129/25 55/130/25 54/128/25
f 9/129/26 8/131/26 56/132/26 55/130/26
f 8/131/27 7/133/27 57/134/27 56/132/27
f 7/133/28 6/135/28 58/136/28 57/134/28
f 6/135/29 5/137/29 59/138/29 58/136/29
f 60/92/30 59/138/30 5/137/30 4/89/30
f 20/88/31 19/139/31 45/140/31 44/85/31
f 18/141/32 46/142/32 45/140/32 19/139/32
f 17/143/33 47/144/33 46/142/33 18/141/33
f 16/145/34 48/146/34 47/144/34 17/143/34
f 16/145/35 15/147/35 49/148/35 48/146/35
f 15/147/36 14/149/36 50/150/36 49/148/36
f 14/149/37 13/151/37 51/152/37 50/150/37
f 13/151/38 12/125/38 52/124/38 51/152/38
f 77/153/7 78/154/7 79/155/7 80/156/7
f 80/156/39 79/155/39 81/157/39 82/158/39
f 82/158/40 81/157/40 83/159/40 84/160/40
f 84/160/10 83/159/10 85/161/10 86/162/10
f 86/162/11 85/161/11 87/163/11 88/164/11
f 88/164/41 87/163/41 89/165/41 90/166/41
f 90/166/42 89/165/42 91/167/42 92/168/42
f 92/168/14 91/167/14 93/169/14 94/170/14
f 94/170/15 93/169/15 95/171/15 96/172/15
f 96/172/16 95/171/16 97/173/16 98/174/16
f 98/174/17 97/173/17 99/175/17 100/176/17
f 100/176/18 99/175/18 101/177/18 102/178/18
f 102/178/19 101/177/19 103/179/19 104/180/19
f 104/180/43 103/179/43 105/181/43 106/182/43
f 106/182/21 105/181/21 107/183/21 108/184/21
f 108/184/22 107/183/22 109/185/22 110/186/22
f 110/186/31 109/185/31 111/187/31 112/188/31
f 112/188/32 111/187/32 113/189/32 114/190/32
f 114/190/44 113/189/44 115/191/44 116/192/44
f 116/192/34 115/191/34 117/193/34 118/194/34
f 118/194/35 117/193/35 119/195/35 120/196/35
f 120/196/36 119/195/36 121/197/36 122/198/36
f 122/198/37 121/197/37 123/199/37 124/200/37
f 124/200/38 123/199/38 125/201/38 126/202/38
f 126/202/23 125/201/23 127/203/23 128/204/23
f 128/204/45 127/203/45 129/205/45 130/206/45
f 130/206/46 129/205/46 131/207/46 132/208/46
f 132/208/26 131/207/26 133/209/26 134/210/26
f 134/210/27 133/209/27 135/211/27 136/212/27
f 136/212/47 135/211/47 137/213/47 138/214/47
f 77/215/1 80/216/1 82/217/1 84/218/1 86/219/1 88/220/1 90/221/1 92/222/1 94/223/1 126/224/1 128/225/1 130/226/1 132/227/1 134/228/1 136/229/1 138/230/1 139/231/1
f 138/214/48 137/213/48 140/232/48 139/233/48
f 139/233/30 140/232/30 78/234/30 77/235/30
f 141/236/7 142/237/7 143/238/7 144/239/7
f 144/239/8 143/238/8 145/240/8 146/241/8
f 146/242/49 145/243/49 147/244/49 148/245/49
f 148/245/10 147/244/10 149/246/10 150/247/10
f 150/247/11 149/246/11 151/248/11 152/249/11
f 152/249/12 151/248/12 153/250/12 154/251/12
f 154/251/13 153/250/13 155/252/13 156/253/13
f 156/253/14 155/252/14 157/254/14 158/255/14
f 158/255/15 157/254/15 159/256/15 160/257/15
f 160/257/50 159/256/50 161/258/50 162/259/50
f 162/260/51 161/261/51 163/262/51 164/263/51
f 164/263/18 163/262/18 165/264/18 166/265/18
f 166/265/19 165/264/19 167/266/19 168/267/19
f 168/267/52 167/266/52 169/268/52 170/269/52
f 170/269/53 169/268/53 171/270/53 172/271/53
f 172/271/22 171/270/22 173/272/22 174/273/22
f 174/273/31 173/272/31 175/274/31 176/275/31
f 176/275/54 175/274/54 177/276/54 178/277/54
f 178/277/55 177/276/55 179/278/55 180/279/55
f 180/279/34 179/278/34 181/280/34 182/281/34
f 182/281/35 181/280/35 183/282/35 184/283/35
f 184/283/56 183/282/56 185/284/56 186/285/56
f 186/285/57 185/284/57 187/286/57 188/287/57
f 188/287/38 187/286/38 189/288/38 190/289/38
f 190/289/23 189/288/23 191/290/23 192/291/23
f 192/291/24 191/290/24 193/292/24 194/293/24
f 194/293/25 193/292/25 195/294/25 196/295/25
f 196/295/26 195/294/26 197/296/26 198/297/26
f 198/297/27 197/296/27 199/298/27 200/299/27
f 200/299/58 199/298/58 201/300/58 202/301/58
f 157/302/3 189/303/3 187/304/3 185/305/3 183/306/3 181/307/3 179/308/3 177/309/3 175/310/3 173/311/3 171/312/3 169/313/3 167/314/3 165/315/3 163/316/3 161/317/3 159/318/3
f 202/301/29 201/300/29 203/319/29 204/320/29
f 204/320/30 203/319/30 142/321/30 141/322/30
f 190/323/1 158/324/1 160/325/1 162/326/1 164/327/1 166/328/1 168/329/1 170/330/1 172/331/1 174/332/1 176/333/1 178/334/1 180/335/1 182/336/1 184/337/1 186/338/1 188/339/1
f 79/340/3 78/341/3 140/342/3 137/343/3 135/344/3 133/345/3 131/346/3 129/347/3 127/348/3 125/349/3 93/350/3 91/351/3 89/352/3 87/353/3 85/354/3 83/355/3 81/356/3
