# Blender v2.90.0 OBJ File: 'CSP - T08 - Posters.blend'
# www.blender.org
mtllib maze_floor.mtl
o Maze_Floor
v -2.500000 -0.025000 -2.500000
v -2.500000 0.025000 -2.500000
v 2.500000 -0.025000 -2.500000
v 2.500000 0.025000 -2.500000
v -2.500000 -0.025000 2.500000
v -2.500000 0.025000 2.500000
v 2.500000 -0.025000 2.500000
v 2.500000 0.025000 2.500000
vt 0.645646 0.062620
vt 0.652249 0.062669
vt 0.652248 0.440968
vt 0.645646 0.440919
vt 0.625120 0.062620
vt 0.631722 0.062669
vt 0.631722 0.440968
vt 0.625120 0.440919
vt 0.631962 0.062620
vt 0.638564 0.062669
vt 0.638564 0.440968
vt 0.631962 0.440919
vt 0.638804 0.062620
vt 0.645406 0.062669
vt 0.645406 0.440968
vt 0.638804 0.440919
vt 0.000240 0.999760
vt 0.000240 0.000240
vt 0.999760 0.000240
vt 0.999760 0.999760
vt 0.999760 0.000240
vt 0.999760 0.999760
vt 0.000240 0.999760
vt 0.000240 0.000240
vn 0.0000 0.0000 -1.0000
vn 1.0000 0.0000 0.0000
vn 0.0000 0.0000 1.0000
vn -1.0000 0.0000 0.0000
vn 0.0000 -1.0000 0.0000
vn 0.0000 1.0000 0.0000
usemtl Maze_Pattern_Material
s off
f 1/1/1 2/2/1 4/3/1 3/4/1
f 3/5/2 4/6/2 8/7/2 7/8/2
f 7/9/3 8/10/3 6/11/3 5/12/3
f 5/13/4 6/14/4 2/15/4 1/16/4
f 3/17/5 7/18/5 5/19/5 1/20/5
f 8/21/6 4/22/6 2/23/6 6/24/6
