# Blender v2.90.0 OBJ File: 'CSP - T08 - Posters.blend'
# www.blender.org
mtllib seismograph_waves_poster.mtl
o seismograph_poster
v -8.000000 4.500000 -0.025000
v -8.000000 4.500000 0.025000
v 8.000000 4.500000 -0.025000
v 8.000000 4.500000 0.025000
v -8.000000 -4.500000 -0.025000
v -8.000000 -4.500000 0.025000
v 8.000000 -4.500000 -0.025000
v 8.000000 -4.500000 0.025000
vt 0.769774 0.957471
vt 0.769802 0.945733
vt 0.982595 0.945734
vt 0.982567 0.957471
vt 0.769774 0.993962
vt 0.769802 0.982225
vt 0.982595 0.982225
vt 0.982567 0.993962
vt 0.769774 0.981798
vt 0.769802 0.970061
vt 0.982595 0.970061
vt 0.982567 0.981798
vt 0.769774 0.969635
vt 0.769802 0.957897
vt 0.982595 0.957897
vt 0.982567 0.969635
vt 0.000240 0.999760
vt 0.000240 0.000240
vt 0.999760 0.000240
vt 0.999760 0.999760
vt 0.999760 0.000240
vt 0.999760 0.999760
vt 0.000240 0.999760
vt 0.000240 0.000240
vn 0.0000 1.0000 0.0000
vn 1.0000 0.0000 0.0000
vn 0.0000 -1.0000 0.0000
vn -1.0000 0.0000 0.0000
vn 0.0000 0.0000 -1.0000
vn 0.0000 -0.0000 1.0000
usemtl Seismograph_Waves_Material
s off
f 1/1/1 2/2/1 4/3/1 3/4/1
f 3/5/2 4/6/2 8/7/2 7/8/2
f 7/9/3 8/10/3 6/11/3 5/12/3
f 5/13/4 6/14/4 2/15/4 1/16/4
f 3/17/5 7/18/5 5/19/5 1/20/5
f 8/21/6 4/22/6 2/23/6 6/24/6
