# Blender v2.93.5 OBJ File: 'closet.blend'
# www.blender.org
mtllib closet.mtl
o closet_Cube
v -0.250000 0.000000 1.000000
v -0.250000 2.000000 1.000000
v -0.250000 0.000000 -1.000000
v -0.250000 2.000000 -1.000000
v 0.250000 0.053135 0.946865
v 0.250000 1.946865 0.946865
v 0.250000 0.053135 -0.946865
v 0.250000 1.946865 -0.946865
v 0.250000 2.000000 -1.000000
v 0.250000 0.000000 -1.000000
v 0.250000 0.000000 1.000000
v 0.250000 2.000000 1.000000
v -0.225000 1.946865 -0.946865
v -0.225000 0.053135 -0.946865
v -0.225000 0.053135 0.946865
v -0.225000 1.946865 0.946865
v -0.250000 1.000000 1.000000
v -0.250000 1.000000 -1.000000
v 0.250000 1.000000 -1.000000
v 0.250000 1.000000 1.000000
v 0.250000 1.000000 -0.946865
v 0.250000 1.000000 0.946865
v -0.225000 1.000000 -0.946865
v -0.225000 1.000000 0.946865
v -0.250000 1.500000 1.000000
v -0.250000 1.500000 -1.000000
v 0.250000 1.500000 -1.000000
v 0.250000 1.500000 1.000000
v 0.250000 1.473432 -0.946865
v 0.250000 1.473432 0.946865
v -0.225000 1.473432 -0.946865
v -0.225000 1.473432 0.946865
v -0.250000 1.750000 1.000000
v -0.250000 1.750000 -1.000000
v 0.250000 1.750000 -1.000000
v 0.250000 1.750000 1.000000
v 0.250000 1.710149 -0.946865
v 0.250000 1.710149 0.946865
v -0.225000 1.710149 -0.946865
v -0.225000 1.710149 0.946865
v -0.250000 1.250000 -1.000000
v 0.250000 1.250000 -1.000000
v 0.250000 1.250000 1.000000
v 0.250000 1.236716 -0.946865
v 0.250000 1.236716 0.946865
v -0.225000 1.236716 -0.946865
v -0.225000 1.236716 0.946865
v -0.250000 1.250000 1.000000
v -0.250000 1.375000 1.000000
v -0.250000 1.375000 -1.000000
v 0.250000 1.375000 -1.000000
v 0.250000 1.375000 1.000000
v 0.250000 1.355074 -0.946865
v 0.250000 1.355074 0.946865
v -0.225000 1.355074 -0.946865
v -0.225000 1.355074 0.946865
v 0.225000 1.473432 -0.946865
v 0.225000 1.473432 0.946865
v 0.225000 1.355074 -0.946865
v 0.225000 1.355074 0.946865
vt 0.340580 0.946353
vt 0.340580 0.979252
vt 0.077388 0.979252
vt 0.077388 0.946353
vt 0.471308 0.637182
vt 0.471308 0.624660
vt 0.575567 0.624660
vt 0.575567 0.637182
vt 0.919881 0.369763
vt 0.818002 0.369763
vt 0.818002 0.267547
vt 0.919881 0.267547
vt 0.471321 0.749923
vt 0.471321 0.737619
vt 0.575554 0.737619
vt 0.575554 0.749923
vt 0.404139 0.848409
vt 0.503297 0.848409
vt 0.503297 0.947567
vt 0.404139 0.947567
vt 0.527404 0.850680
vt 0.632895 0.850680
vt 0.632895 0.946727
vt 0.527404 0.946727
vt 0.959298 0.878906
vt 0.959298 0.777029
vt 0.965016 0.771312
vt 0.965015 0.878906
vt 0.755544 0.777029
vt 0.749827 0.771312
vt 0.755544 0.980784
vt 0.959298 0.980783
vt 0.965016 0.986500
vt 0.749827 0.986501
vt 0.755544 0.955314
vt 0.749827 0.959602
vt 0.908834 0.031831
vt 0.930398 0.031831
vt 0.930398 0.204340
vt 0.908834 0.204340
vt 0.919712 0.471851
vt 0.817833 0.471851
vt 0.817833 0.369635
vt 0.919712 0.369635
vt 0.830657 0.711927
vt 0.819495 0.711927
vt 0.819495 0.622336
vt 0.830657 0.622336
vt 0.864291 0.509419
vt 0.908938 0.509419
vt 0.908938 0.599010
vt 0.864291 0.599010
vt 0.853129 0.509419
vt 0.853129 0.599010
vt 0.908791 0.711927
vt 0.864143 0.711927
vt 0.864143 0.622336
vt 0.908791 0.622336
vt 0.757889 0.031831
vt 0.844144 0.031831
vt 0.844144 0.204340
vt 0.757889 0.204340
vt 0.755544 0.878907
vt 0.749827 0.878907
vt 0.959298 0.904376
vt 0.965015 0.905805
vt 0.471321 0.836052
vt 0.471321 0.786835
vt 0.575554 0.786835
vt 0.575554 0.836052
vt 0.471308 0.724835
vt 0.471308 0.674747
vt 0.575567 0.674747
vt 0.575567 0.724835
vt 0.340580 0.716060
vt 0.340580 0.847656
vt 0.077388 0.847656
vt 0.077388 0.716060
vt 0.959298 0.955314
vt 0.959298 0.929845
vt 0.965015 0.932703
vt 0.965015 0.959602
vt 0.830805 0.509419
vt 0.841967 0.509419
vt 0.841967 0.599010
vt 0.830805 0.599010
vt 0.847400 0.711927
vt 0.841819 0.711927
vt 0.841819 0.622336
vt 0.847400 0.622336
vt 0.205600 0.429292
vt 0.096036 0.429292
vt 0.096036 0.325151
vt 0.205600 0.325151
vt 0.755544 0.917110
vt 0.755544 0.929845
vt 0.749827 0.932703
vt 0.749827 0.919254
vt 0.471321 0.768379
vt 0.471321 0.762227
vt 0.575554 0.762227
vt 0.575554 0.768379
vt 0.471308 0.655965
vt 0.471308 0.649704
vt 0.575567 0.649704
vt 0.575567 0.655965
vt 0.340580 0.897005
vt 0.340580 0.913454
vt 0.077388 0.913454
vt 0.077388 0.897005
vt 0.819643 0.509419
vt 0.819643 0.599010
vt 0.887271 0.031831
vt 0.887271 0.204340
vt 0.340580 0.880555
vt 0.077388 0.880555
vt 0.471308 0.662226
vt 0.575567 0.662226
vt 0.471321 0.774531
vt 0.575554 0.774531
vt 0.755544 0.904376
vt 0.749827 0.905805
vt 0.865707 0.031831
vt 0.865707 0.204340
vt 0.852981 0.711927
vt 0.852981 0.622336
vt 0.959298 0.917110
vt 0.965015 0.919254
vt 0.847548 0.509419
vt 0.847548 0.599010
vt 0.876489 0.031831
vt 0.876489 0.204340
vt 0.096036 0.318304
vt 0.205600 0.318304
vt 0.096036 0.214162
vt 0.205600 0.214162
vn -1.0000 0.0000 0.0000
vn 0.0000 0.0000 -1.0000
vn 0.0000 1.0000 0.0000
vn 0.0000 0.0000 1.0000
vn 0.0000 -1.0000 0.0000
vn 1.0000 0.0000 0.0000
usemtl Material.001
s off
f 33/1/1 2/2/1 4/3/1 34/4/1
f 34/5/2 4/6/2 9/7/2 35/8/2
f 5/9/3 7/10/3 14/11/3 15/12/3
f 36/13/4 12/14/4 2/15/4 33/16/4
f 3/17/5 10/18/5 11/19/5 1/20/5
f 9/21/3 4/22/3 2/23/3 12/24/3
f 21/25/6 7/26/6 10/27/6 19/28/6
f 7/26/6 5/29/6 11/30/6 10/27/6
f 6/31/6 8/32/6 9/33/6 12/34/6
f 38/35/6 6/31/6 12/34/6 36/36/6
f 39/37/6 13/38/6 16/39/6 40/40/6
f 8/41/5 6/42/5 16/43/5 13/44/5
f 37/45/4 8/46/4 13/47/4 39/48/4
f 22/49/2 5/50/2 15/51/2 24/52/2
f 45/53/2 22/49/2 24/52/2 47/54/2
f 7/55/4 21/56/4 23/57/4 14/58/4
f 14/59/6 23/60/6 24/61/6 15/62/6
f 5/29/6 22/63/6 20/64/6 11/30/6
f 44/65/6 21/25/6 19/28/6 42/66/6
f 11/67/4 20/68/4 17/69/4 1/70/4
f 3/71/2 18/72/2 19/73/2 10/74/2
f 1/75/1 17/76/1 18/77/1 3/78/1
f 37/79/6 29/80/6 27/81/6 35/82/6
f 38/83/2 30/84/2 32/85/2 40/86/2
f 53/87/4 29/88/4 31/89/4 55/90/4
f 56/91/5 55/92/5 59/93/5 60/94/5
f 54/95/6 30/96/6 28/97/6 52/98/6
f 52/99/4 28/100/4 25/101/4 49/102/4
f 50/103/2 26/104/2 27/105/2 51/106/2
f 49/107/1 25/108/1 26/109/1 50/110/1
f 6/111/2 38/83/2 40/86/2 16/112/2
f 8/32/6 37/79/6 35/82/6 9/33/6
f 29/88/4 37/45/4 39/48/4 31/89/4
f 31/113/6 39/37/6 40/40/6 32/114/6
f 30/96/6 38/35/6 36/36/6 28/97/6
f 28/100/4 36/13/4 33/16/4 25/101/4
f 26/104/2 34/5/2 35/8/2 27/105/2
f 25/108/1 33/1/1 34/4/1 26/109/1
f 17/76/1 48/115/1 41/116/1 18/77/1
f 18/72/2 41/117/2 42/118/2 19/73/2
f 20/68/4 43/119/4 48/120/4 17/69/4
f 22/63/6 45/121/6 43/122/6 20/64/6
f 23/60/6 46/123/6 47/124/6 24/61/6
f 21/56/4 44/125/4 46/126/4 23/57/4
f 53/127/6 44/65/6 42/66/6 51/128/6
f 54/129/2 45/53/2 47/54/2 56/130/2
f 30/84/2 54/129/2 56/130/2 32/85/2
f 29/80/6 53/127/6 51/128/6 27/81/6
f 48/115/1 49/107/1 50/110/1 41/116/1
f 41/117/2 50/103/2 51/106/2 42/118/2
f 43/119/4 52/99/4 49/102/4 48/120/4
f 45/121/6 54/95/6 52/98/6 43/122/6
f 46/123/6 55/131/6 56/132/6 47/124/6
f 44/125/4 53/87/4 55/90/4 46/126/4
f 59/93/6 57/133/6 58/134/6 60/94/6
f 31/135/3 32/136/3 58/134/3 57/133/3
