# Blender v2.90.0 OBJ File: 'CSP - T08 - Fixed Models.blend'
# www.blender.org
mtllib truck_key.mtl
o truck_key
v 0.163800 0.193340 0.040940
v 0.163800 0.193340 -0.040940
v 0.122780 0.232000 -0.030700
v 0.122780 0.232000 0.030700
v 0.200000 -0.193340 -0.050000
v 0.200000 0.193340 -0.050000
v 0.200000 0.193340 0.050000
v 0.200000 -0.193340 0.050000
v 0.000000 -0.193340 0.050000
v 0.000000 0.193340 0.050000
v -0.200000 0.193340 0.050000
v -0.200000 -0.193340 0.050000
v 0.000000 -0.193340 -0.050000
v 0.000000 0.193340 -0.050000
v -0.200000 0.193340 -0.050000
v -0.200000 -0.193340 -0.050000
v 0.000000 0.193340 -0.040940
v 0.000000 0.193340 0.040940
v -0.163800 0.193340 0.040940
v -0.163800 0.193340 -0.040940
v -0.068580 0.232000 -0.017140
v -0.068580 0.232000 0.017140
v -0.068580 0.967000 0.017140
v -0.068580 0.967000 -0.017140
v -0.122780 0.232000 0.030700
v -0.122780 0.232000 -0.030700
v 0.000000 0.232000 -0.030700
v 0.000000 0.232000 0.030700
v 0.068580 0.232000 -0.017140
v 0.068580 0.232000 0.017140
v 0.000000 0.232000 -0.017140
v 0.000000 0.232000 0.017140
v 0.000000 1.006660 -0.017140
v 0.000000 1.006660 0.017140
v 0.068580 0.967000 0.017140
v 0.068580 0.967000 -0.017140
vt 0.311098 0.438958
vt 0.321776 0.347488
vt 0.353347 0.344933
vt 0.341046 0.473600
vt 0.283704 0.373788
vt 0.312247 0.349617
vt 0.299478 0.430648
vt 0.281978 0.372339
vt 0.280595 0.375946
vt 0.244560 0.466003
vt 0.232478 0.403175
vt 0.277385 0.379751
vt 0.275561 0.376370
vt 0.291385 0.290407
vt 0.242765 0.324872
vt 0.272538 0.380888
vt 0.301908 0.269323
vt 0.232337 0.487516
vt 0.215632 0.406236
vt 0.226860 0.316089
vt 0.750644 0.898478
vt 0.703071 0.936073
vt 0.706519 0.085724
vt 0.750644 0.062500
vt 0.175766 0.409847
vt 0.192852 0.280523
vt 0.346739 0.193971
vt 0.186451 0.565418
vt 0.510921 0.371915
vt 0.510921 0.744493
vt 0.474315 0.034783
vt 0.063145 0.734447
vt 0.000087 0.383305
vt 0.027175 0.000087
vt 0.723077 0.000087
vt 0.722773 0.051721
vt 0.738625 0.085914
vt 0.694776 0.062170
vt 0.717834 0.889721
vt 0.717185 0.999913
vt 0.732050 0.936244
vt 0.684924 0.898090
vn 0.6859 0.7277 0.0000
vn 1.0000 0.0000 0.0000
vn 0.0000 -0.0000 1.0000
vn 0.0000 -1.0000 -0.0000
vn 0.0000 0.0000 -1.0000
vn -1.0000 -0.0000 0.0000
vn 0.0000 1.0000 0.0000
vn -0.6859 0.7277 0.0000
vn 0.0000 0.2565 -0.9665
vn 0.0000 0.2560 -0.9667
vn -0.0000 0.2565 0.9665
vn 0.0000 0.2560 0.9667
vn 0.5006 0.8657 0.0000
vn -0.5006 0.8657 0.0000
usemtl Truck_Key_Material
s 1
f 1/1/1 2/2/1 3/3/1 4/4/1
f 5/5/2 6/6/2 7/7/2 8/8/2
f 9/9/3 10/10/3 11/11/3 12/12/3
f 9/9/4 13/13/4 5/5/4 8/8/4
f 13/13/5 14/14/5 6/6/5 5/5/5
f 12/12/6 11/11/6 15/15/6 16/16/6
f 2/2/7 1/1/7 7/7/7 6/6/7
f 17/17/7 2/2/7 6/6/7 14/14/7
f 18/18/7 19/19/7 11/11/7 10/10/7
f 19/19/7 20/20/7 15/15/7 11/11/7
f 21/21/6 22/22/6 23/23/6 24/24/6
f 20/20/8 19/19/8 25/25/8 26/26/8
f 17/17/9 20/20/10 26/26/10 27/27/9
f 18/18/11 1/1/12 4/4/12 28/28/11
f 29/29/7 30/30/7 4/4/7 3/3/7
f 31/31/7 29/29/7 3/3/7 27/27/7
f 32/32/7 22/33/7 25/25/7 28/28/7
f 22/33/7 21/34/7 26/26/7 25/25/7
f 33/35/13 34/36/13 35/37/13 36/38/13
f 31/39/5 21/21/5 24/24/5 33/35/5
f 32/40/3 30/41/3 35/37/3 34/36/3
f 30/41/2 29/42/2 36/38/2 35/37/2
f 22/22/3 32/40/3 34/36/3 23/23/3
f 29/42/5 31/39/5 33/35/5 36/38/5
f 24/24/14 23/23/14 34/36/14 33/35/14
f 30/30/7 32/32/7 28/28/7 4/4/7
f 21/34/7 31/31/7 27/27/7 26/26/7
f 19/19/12 18/18/11 28/28/11 25/25/12
f 2/2/10 17/17/9 27/27/9 3/3/10
f 1/1/7 18/18/7 10/10/7 7/7/7
f 20/20/7 17/17/7 14/14/7 15/15/7
f 16/16/5 15/15/5 14/14/5 13/13/5
f 12/12/4 16/16/4 13/13/4 9/9/4
f 8/8/3 7/7/3 10/10/3 9/9/3
