# Blender v2.90.0 OBJ File: 'CSP - T08 - Fixed Models.blend'
# www.blender.org
mtllib frame.mtl
o frame_picture_frame
v -0.045000 0.050000 0.045000
v -0.060000 0.050000 0.045000
v -0.060000 0.050000 0.060000
v -0.045000 0.050000 0.060000
v -0.045000 0.000000 0.060000
v -0.060000 0.000000 0.060000
v -0.060000 0.000000 -0.045000
v -0.060000 0.050000 -0.045000
v -0.060000 0.050000 -0.060000
v -0.060000 0.000000 -0.060000
v 0.045145 0.000000 0.045000
v 0.060000 0.000000 0.045000
v 0.060000 0.000000 0.060000
v 0.045145 0.000000 0.060000
v 0.060000 0.050000 0.045000
v 0.060000 0.050000 0.060000
v 0.045145 0.000000 -0.060000
v 0.045145 0.050000 -0.060000
v 0.060000 0.050000 -0.060000
v 0.060000 0.000000 -0.060000
v 0.060000 0.000000 -0.030000
v 0.060000 0.050000 -0.030000
v 0.060000 0.050000 0.000000
v 0.060000 0.000000 -0.000000
v 0.045145 0.000000 -0.030000
v 0.045145 0.000000 -0.000000
v -0.060000 0.000000 0.030000
v -0.060000 0.050000 0.030000
v -0.060000 0.050000 0.000000
v -0.060000 0.000000 -0.000000
v -0.045000 0.050000 -0.030000
v -0.060000 0.050000 -0.030000
v -0.045000 0.050000 0.000000
v -0.060000 0.000000 0.045000
v 0.060000 0.050000 0.030000
v 0.060000 0.000000 0.030000
v 0.045145 0.000000 0.030000
v -0.045000 0.050000 0.030000
v -0.045000 0.050000 -0.045000
v 0.045145 0.000000 -0.045000
v 0.060000 0.000000 -0.045000
v 0.060000 0.050000 -0.045000
v -0.060000 0.000000 -0.030000
v -0.045000 0.050000 -0.060000
v 0.030291 0.050000 -0.060000
v 0.000000 0.050000 -0.060000
v 0.000000 0.050000 -0.045000
v 0.030291 0.050000 -0.045000
v -0.030000 0.000000 -0.060000
v 0.000000 0.000000 -0.060000
v 0.000000 0.000000 -0.045000
v -0.030000 0.000000 -0.045000
v -0.030000 0.050000 0.045000
v 0.000000 0.050000 0.045000
v 0.000000 0.046250 0.045000
v -0.030000 0.046250 0.045000
v -0.030000 0.000000 0.030000
v 0.000000 0.000000 0.030000
v 0.000000 0.000000 0.045000
v -0.030000 0.000000 0.045000
v 0.000000 0.000000 -0.030000
v -0.030000 0.000000 -0.030000
v -0.045000 0.046250 -0.030000
v -0.045000 0.046250 -0.045000
v 0.030291 0.050000 0.045000
v 0.030291 0.046250 0.045000
v -0.030000 0.000000 -0.000000
v 0.000000 0.000000 -0.000000
v 0.045145 0.050000 0.030000
v 0.045145 0.050000 0.000000
v 0.045145 0.046250 0.000000
v 0.045145 0.046250 0.030000
v -0.030000 0.050000 -0.060000
v 0.000000 0.000000 0.060000
v -0.030000 0.000000 0.060000
v 0.030291 0.000000 0.060000
v 0.030291 0.050000 0.060000
v 0.000000 0.050000 0.060000
v 0.045145 0.050000 0.045000
v 0.045145 0.050000 0.060000
v -0.045000 0.046250 0.045000
v -0.045000 0.046250 0.030000
v -0.030000 0.050000 -0.045000
v -0.030000 0.046250 -0.045000
v 0.045145 0.050000 -0.030000
v 0.045145 0.050000 -0.045000
v 0.045145 0.046250 -0.045000
v 0.045145 0.046250 -0.030000
v 0.030291 0.000000 -0.060000
v 0.030291 0.000000 -0.045000
v 0.030291 0.000000 0.030000
v 0.030291 0.000000 0.045000
v 0.030291 0.000000 -0.030000
v 0.030291 0.000000 -0.000000
v -0.045000 0.000000 0.045000
v -0.045000 0.000000 -0.060000
v -0.045000 0.000000 -0.030000
v -0.045000 0.000000 -0.000000
v -0.045000 0.000000 0.030000
v -0.045000 0.000000 -0.045000
v 0.045145 0.046250 0.045000
v 0.030291 0.046250 -0.045000
v 0.000000 0.046250 -0.045000
v -0.030000 0.050000 0.060000
v -0.045000 0.046250 0.000000
v 0.030291 0.046250 0.030000
v 0.000000 0.046250 0.030000
v 0.000000 0.046250 -0.030000
v 0.030291 0.046250 -0.030000
v 0.030291 0.046250 0.000000
v 0.000000 0.046250 0.000000
v -0.030000 0.046250 0.030000
v -0.030000 0.046250 -0.030000
v -0.030000 0.046250 0.000000
vt 0.355081 0.951858
vt 0.355081 0.993461
vt 0.313478 0.993461
vt 0.313478 0.951858
vt 0.266581 0.332903
vt 0.145192 0.332903
vt 0.145192 0.317729
vt 0.266581 0.317729
vt 0.251408 0.682271
vt 0.251408 0.560882
vt 0.266581 0.560882
vt 0.266581 0.682271
vt 0.863941 0.365925
vt 0.905141 0.365925
vt 0.905141 0.407528
vt 0.863941 0.407528
vt 0.388158 0.332903
vt 0.266768 0.332903
vt 0.266768 0.317729
vt 0.388158 0.317729
vt 0.160219 0.439305
vt 0.160219 0.560695
vt 0.145192 0.560695
vt 0.145192 0.439305
vt 0.388158 0.408771
vt 0.266768 0.408771
vt 0.266768 0.378424
vt 0.388158 0.378424
vt 0.863941 0.157912
vt 0.905141 0.157912
vt 0.905141 0.241117
vt 0.863941 0.241117
vt 0.175539 0.682271
vt 0.175539 0.560882
vt 0.205887 0.560882
vt 0.205887 0.682271
vt 0.563094 0.951858
vt 0.563094 0.993461
vt 0.479889 0.993461
vt 0.479889 0.951858
vt 0.160366 0.682271
vt 0.160366 0.560882
vt 0.266768 0.348076
vt 0.388158 0.348076
vt 0.905141 0.324322
vt 0.863941 0.324322
vt 0.396683 0.993461
vt 0.396683 0.951858
vt 0.604696 0.951858
vt 0.604696 0.993461
vt 0.863941 0.116309
vt 0.905141 0.116309
vt 0.388158 0.423945
vt 0.266768 0.423945
vt 0.236234 0.560882
vt 0.236234 0.682271
vt 0.145192 0.682271
vt 0.145192 0.560882
vt 0.388158 0.439118
vt 0.266768 0.439118
vt 0.863941 0.074707
vt 0.905141 0.074707
vt 0.646299 0.951858
vt 0.646299 0.993461
vt 0.646299 0.743038
vt 0.646299 0.827050
vt 0.604696 0.827050
vt 0.604696 0.743038
vt 0.655525 0.074707
vt 0.738730 0.074707
vt 0.738730 0.116309
vt 0.655525 0.116309
vt 0.910304 0.657670
vt 0.910304 0.574465
vt 0.935265 0.574465
vt 0.935265 0.657670
vt 0.655525 0.324322
vt 0.738730 0.324322
vt 0.738730 0.365925
vt 0.655525 0.365925
vt 0.738730 0.157912
vt 0.655525 0.157912
vt 0.960739 0.449254
vt 0.960739 0.490857
vt 0.935778 0.490857
vt 0.935778 0.449254
vt 0.910304 0.490453
vt 0.935265 0.490453
vt 0.655525 0.241117
vt 0.738730 0.241117
vt 0.784983 0.582492
vt 0.701778 0.582492
vt 0.701778 0.557530
vt 0.784983 0.557530
vt 0.236234 0.439305
vt 0.236234 0.560695
vt 0.205887 0.560695
vt 0.205887 0.439305
vt 0.738730 0.407528
vt 0.655525 0.407528
vt 0.266581 0.409065
vt 0.145192 0.409065
vt 0.145192 0.378424
vt 0.266581 0.378424
vt 0.355081 0.743038
vt 0.355081 0.827050
vt 0.313478 0.827050
vt 0.313478 0.743038
vt 0.355081 0.701839
vt 0.313478 0.701839
vt 0.266581 0.424092
vt 0.145192 0.424092
vt 0.960739 0.657267
vt 0.960739 0.698869
vt 0.935778 0.698869
vt 0.935778 0.657267
vt 0.785387 0.532056
vt 0.826989 0.532056
vt 0.826989 0.557017
vt 0.785387 0.557017
vt 0.618573 0.582492
vt 0.576970 0.582492
vt 0.576970 0.557530
vt 0.618573 0.557530
vt 0.910304 0.699273
vt 0.935265 0.699273
vt 0.646299 0.701839
vt 0.604696 0.701839
vt 0.822742 0.074707
vt 0.822742 0.116309
vt 0.822742 0.324322
vt 0.822742 0.365925
vt 0.822742 0.157912
vt 0.822742 0.241117
vt 0.175245 0.560695
vt 0.175245 0.439305
vt 0.822742 0.407528
vt 0.613922 0.365925
vt 0.613922 0.407528
vt 0.251408 0.439305
vt 0.251408 0.560695
vt 0.613922 0.157912
vt 0.613922 0.241117
vt 0.613922 0.324322
vt 0.613922 0.116309
vt 0.613922 0.074707
vt 0.646299 0.910255
vt 0.604696 0.910255
vt 0.826586 0.582492
vt 0.826586 0.557530
vt 0.576970 0.532056
vt 0.618170 0.532056
vt 0.618170 0.557017
vt 0.576970 0.557017
vt 0.910304 0.449254
vt 0.935265 0.449254
vt 0.702181 0.532056
vt 0.702181 0.557017
vt 0.145192 0.348076
vt 0.266581 0.348076
vt 0.355081 0.910255
vt 0.313478 0.910255
vt 0.572320 0.074707
vt 0.572320 0.116309
vt 0.572320 0.324322
vt 0.572320 0.365925
vt 0.572320 0.157912
vt 0.572320 0.241117
vt 0.266581 0.439305
vt 0.266581 0.560695
vt 0.572320 0.407528
vt 0.960739 0.574062
vt 0.935778 0.574062
vt 0.646299 0.660640
vt 0.604696 0.660640
vt 0.396683 0.660640
vt 0.396683 0.701839
vt 0.355081 0.660640
vt 0.563094 0.701839
vt 0.563094 0.660640
vt 0.479889 0.660640
vt 0.479889 0.701839
vt 0.266581 0.439118
vt 0.145192 0.439118
vt 0.313478 0.660640
vt 0.874936 0.945460
vt 0.874936 0.861448
vt 0.916538 0.861448
vt 0.916538 0.945460
vt 0.666923 0.945460
vt 0.666923 0.861448
vt 0.708526 0.861448
vt 0.708526 0.945460
vt 0.791731 0.945460
vt 0.791731 0.861449
vt 0.708525 0.986660
vt 0.791731 0.986660
vt 0.874936 0.986660
vt 0.666923 0.986660
vt 0.916538 0.986660
vt 0.874936 0.778243
vt 0.916538 0.778243
vt 0.666923 0.778243
vt 0.708526 0.778243
vt 0.791731 0.778243
vt 0.874936 0.736641
vt 0.916538 0.736641
vt 0.666923 0.736641
vt 0.708526 0.736641
vt 0.791731 0.736641
vn 0.0000 1.0000 0.0000
vn 0.0000 -0.0000 1.0000
vn -1.0000 0.0000 0.0000
vn 0.0000 -1.0000 -0.0000
vn 1.0000 -0.0000 0.0000
vn 0.0000 0.0000 -1.0000
usemtl Frame
s 1
f 1/1/1 2/2/1 3/3/1 4/4/1
f 5/5/2 4/6/2 3/7/2 6/8/2
f 7/9/3 8/10/3 9/11/3 10/12/3
f 11/13/4 12/14/4 13/15/4 14/16/4
f 12/17/5 15/18/5 16/19/5 13/20/5
f 17/21/6 18/22/6 19/23/6 20/24/6
f 21/25/5 22/26/5 23/27/5 24/28/5
f 25/29/4 21/30/4 24/31/4 26/32/4
f 27/33/3 28/34/3 29/35/3 30/36/3
f 31/37/1 32/38/1 29/39/1 33/40/1
f 34/41/3 2/42/3 28/34/3 27/33/3
f 24/28/5 23/27/5 35/43/5 36/44/5
f 26/32/4 24/31/4 36/45/4 37/46/4
f 33/40/1 29/39/1 28/47/1 38/48/1
f 39/49/1 8/50/1 32/38/1 31/37/1
f 40/51/4 41/52/4 21/30/4 25/29/4
f 41/53/5 42/54/5 22/26/5 21/25/5
f 30/36/3 29/35/3 32/55/3 43/56/3
f 6/57/3 3/58/3 2/42/3 34/41/3
f 36/44/5 35/43/5 15/18/5 12/17/5
f 37/46/4 36/45/4 12/14/4 11/13/4
f 38/48/1 28/47/1 2/2/1 1/1/1
f 20/59/5 19/60/5 42/54/5 41/53/5
f 17/61/4 20/62/4 41/52/4 40/51/4
f 44/63/1 9/64/1 8/50/1 39/49/1
f 43/56/3 32/55/3 8/10/3 7/9/3
f 45/65/1 46/66/1 47/67/1 48/68/1
f 49/69/4 50/70/4 51/71/4 52/72/4
f 53/73/6 54/74/6 55/75/6 56/76/6
f 57/77/4 58/78/4 59/79/4 60/80/4
f 52/72/4 51/71/4 61/81/4 62/82/4
f 39/83/5 31/84/5 63/85/5 64/86/5
f 54/74/6 65/87/6 66/88/6 55/75/6
f 67/89/4 68/90/4 58/78/4 57/77/4
f 69/91/3 70/92/3 71/93/3 72/94/3
f 62/82/4 61/81/4 68/90/4 67/89/4
f 49/95/6 73/96/6 46/97/6 50/98/6
f 60/80/4 59/79/4 74/99/4 75/100/4
f 76/101/2 77/102/2 78/103/2 74/104/2
f 65/105/1 54/106/1 78/107/1 77/108/1
f 79/109/1 65/105/1 77/108/1 80/110/1
f 14/111/2 80/112/2 77/102/2 76/101/2
f 38/113/5 1/114/5 81/115/5 82/116/5
f 83/117/2 39/118/2 64/119/2 84/120/2
f 85/121/3 86/122/3 87/123/3 88/124/3
f 1/125/6 53/73/6 56/76/6 81/126/6
f 18/127/1 45/65/1 48/68/1 86/128/1
f 50/70/4 89/129/4 90/130/4 51/71/4
f 58/78/4 91/131/4 92/132/4 59/79/4
f 51/71/4 90/130/4 93/133/4 61/81/4
f 68/90/4 94/134/4 91/131/4 58/78/4
f 61/81/4 93/133/4 94/134/4 68/90/4
f 50/98/6 46/97/6 45/135/6 89/136/6
f 59/79/4 92/132/4 76/137/4 74/99/4
f 95/138/4 60/80/4 75/100/4 5/139/4
f 96/140/6 44/141/6 73/96/6 49/95/6
f 97/142/4 62/82/4 67/89/4 98/143/4
f 98/143/4 67/89/4 57/77/4 99/144/4
f 100/145/4 52/72/4 62/82/4 97/142/4
f 99/144/4 57/77/4 60/80/4 95/138/4
f 96/146/4 49/69/4 52/72/4 100/145/4
f 46/66/1 73/147/1 83/148/1 47/67/1
f 79/149/3 69/91/3 72/94/3 101/150/3
f 86/151/2 48/152/2 102/153/2 87/154/2
f 65/87/6 79/155/6 101/156/6 66/88/6
f 47/157/2 83/117/2 84/120/2 103/158/2
f 74/104/2 78/103/2 104/159/2 75/160/2
f 54/106/1 53/161/1 104/162/1 78/107/1
f 10/163/4 96/146/4 100/145/4 7/164/4
f 27/165/4 99/144/4 95/138/4 34/166/4
f 7/164/4 100/145/4 97/142/4 43/167/4
f 30/168/4 98/143/4 99/144/4 27/165/4
f 43/167/4 97/142/4 98/143/4 30/168/4
f 10/169/6 9/170/6 44/141/6 96/140/6
f 34/166/4 95/138/4 5/139/4 6/171/4
f 73/147/1 44/63/1 39/49/1 83/148/1
f 31/84/5 33/172/5 105/173/5 63/85/5
f 33/172/5 38/113/5 82/116/5 105/173/5
f 48/152/2 47/157/2 103/158/2 102/153/2
f 70/92/3 85/121/3 88/124/3 71/93/3
f 75/160/2 104/159/2 4/6/2 5/5/2
f 53/161/1 1/1/1 4/4/1 104/162/1
f 19/174/1 18/127/1 86/128/1 42/175/1
f 35/176/1 69/177/1 79/109/1 15/178/1
f 42/175/1 86/128/1 85/179/1 22/180/1
f 23/181/1 70/182/1 69/177/1 35/176/1
f 22/180/1 85/179/1 70/182/1 23/181/1
f 13/183/2 16/184/2 80/112/2 14/111/2
f 15/178/1 79/109/1 80/110/1 16/185/1
f 89/129/4 17/61/4 40/51/4 90/130/4
f 91/131/4 37/46/4 11/13/4 92/132/4
f 90/130/4 40/51/4 25/29/4 93/133/4
f 94/134/4 26/32/4 37/46/4 91/131/4
f 93/133/4 25/29/4 26/32/4 94/134/4
f 89/136/6 45/135/6 18/22/6 17/21/6
f 92/132/4 11/13/4 14/16/4 76/137/4
f 106/186/1 107/187/1 55/188/1 66/189/1
f 102/190/1 103/191/1 108/192/1 109/193/1
f 110/194/1 111/195/1 107/187/1 106/186/1
f 109/193/1 108/192/1 111/195/1 110/194/1
f 88/196/1 109/193/1 110/194/1 71/197/1
f 71/197/1 110/194/1 106/186/1 72/198/1
f 87/199/1 102/190/1 109/193/1 88/196/1
f 72/198/1 106/186/1 66/189/1 101/200/1
f 107/187/1 112/201/1 56/202/1 55/188/1
f 103/191/1 84/203/1 113/204/1 108/192/1
f 111/195/1 114/205/1 112/201/1 107/187/1
f 108/192/1 113/204/1 114/205/1 111/195/1
f 112/201/1 82/206/1 81/207/1 56/202/1
f 84/203/1 64/208/1 63/209/1 113/204/1
f 114/205/1 105/210/1 82/206/1 112/201/1
f 113/204/1 63/209/1 105/210/1 114/205/1
