# Blender v2.90.0 OBJ File: 'CSP - T08 - Fixed Models.blend'
# www.blender.org
mtllib certificate.mtl
o certificate
v 0.055000 0.040000 -0.000500
v -0.055000 0.040000 -0.000500
v -0.055000 0.040000 0.000500
v 0.055000 0.040000 0.000500
v -0.055000 -0.040000 -0.000500
v -0.055000 -0.040000 0.000500
v 0.055000 -0.040000 0.000500
v 0.055000 -0.040000 -0.000500
vt 0.792700 0.073950
vt 0.792700 0.149590
vt 0.868340 0.149590
vt 0.868340 0.073950
vt 0.868340 0.301050
vt 0.868340 0.225410
vt 0.792700 0.225410
vt 0.792700 0.301050
vt 0.525932 0.445710
vt 0.168422 0.445710
vt 0.168422 0.803220
vt 0.525932 0.803220
vt 0.868430 0.149680
vt 0.868430 0.225320
vt 0.944070 0.225320
vt 0.944070 0.149680
vt 0.883870 0.803220
vt 0.883870 0.445710
vt 0.526361 0.445710
vt 0.526361 0.803220
vt 0.868340 0.149680
vt 0.792700 0.149680
vt 0.792700 0.225320
vt 0.868340 0.225320
vn 0.0000 1.0000 0.0000
vn -1.0000 0.0000 0.0000
vn 0.0000 -0.0000 1.0000
vn 0.0000 -1.0000 0.0000
vn 0.0000 0.0000 -1.0000
vn 1.0000 0.0000 0.0000
usemtl Certificate_Material
s 1
f 1/1/1 2/2/1 3/3/1 4/4/1
f 5/5/2 6/6/2 3/7/2 2/8/2
f 6/9/3 7/10/3 4/11/3 3/12/3
f 7/13/4 6/14/4 5/15/4 8/16/4
f 8/17/5 5/18/5 2/19/5 1/20/5
f 7/21/6 8/22/6 1/23/6 4/24/6
