# Blender v2.90.0 OBJ File: 'CSP - T08 - Marker.blend'
# www.blender.org
mtllib marker_arrow.mtl
o marker_arrow
v -0.050000 0.025000 0.425000
v -0.050000 -0.000000 0.425000
v -0.500000 0.025000 -0.500000
v -0.500000 -0.000000 -0.500000
v 0.050000 0.025000 0.425000
v 0.050000 -0.000000 0.425000
v 0.500000 0.025000 -0.500000
v 0.500000 -0.000000 -0.500000
v -0.004167 -0.000000 0.500000
v 0.004167 -0.000000 0.500000
v -0.050000 0.025000 -0.300000
v 0.050000 0.025000 -0.300000
v 0.050000 -0.000000 -0.300000
v -0.050000 -0.000000 -0.300000
v 0.004167 0.025000 0.500000
v -0.004167 0.025000 0.500000
vt 0.791667 0.500000
vt 0.875000 0.500000
vt 0.875000 0.750000
vt 0.791667 0.750000
vt 0.375000 0.916667
vt 0.625000 0.916667
vt 0.625000 1.000000
vt 0.375000 1.000000
vt 0.375000 0.000000
vt 0.625000 0.000000
vt 0.625000 0.250000
vt 0.375000 0.250000
vt 0.291667 0.500000
vt 0.375000 0.500000
vt 0.375000 0.750000
vt 0.291667 0.750000
vt 0.625000 0.500000
vt 0.625000 0.750000
vt 0.375000 0.416667
vt 0.625000 0.416667
vt 0.625000 0.333333
vt 0.375000 0.333333
vt 0.125000 0.500000
vt 0.208333 0.500000
vt 0.208333 0.750000
vt 0.125000 0.750000
vt 0.625000 0.833333
vt 0.375000 0.833333
vt 0.708333 0.500000
vt 0.708333 0.750000
vn 0.0000 1.0000 -0.0000
vn -0.4061 0.0000 -0.9138
vn 0.8992 0.0000 0.4375
vn 0.0000 -1.0000 0.0000
vn -0.8992 0.0000 0.4375
vn -0.8533 0.0000 0.5214
vn 0.8533 0.0000 0.5215
vn 0.0000 0.0000 1.0000
vn 0.4061 0.0000 -0.9138
vn 0.0000 0.0000 -1.0000
usemtl Marker_Arrow_Material
s off
f 15/1/1 5/2/1 7/3/1 12/4/1
f 13/5/2 12/6/2 7/7/2 8/8/2
f 8/9/3 7/10/3 5/11/3 6/12/3
f 9/13/4 2/14/4 4/15/4 14/16/4
f 2/14/5 1/17/5 3/18/5 4/15/5
f 9/19/6 16/20/6 1/17/6 2/14/6
f 6/12/7 5/11/7 15/21/7 10/22/7
f 10/22/8 15/21/8 16/20/8 9/19/8
f 6/23/4 10/24/4 13/25/4 8/26/4
f 10/24/4 9/13/4 14/16/4 13/25/4
f 4/15/9 3/18/9 11/27/9 14/28/9
f 14/28/10 11/27/10 12/6/10 13/5/10
f 1/17/1 16/29/1 11/30/1 3/18/1
f 16/29/1 15/1/1 12/4/1 11/30/1
