# Blender v2.90.0 OBJ File: 'CSP - T08 - Fixed Models.blend'
# www.blender.org
mtllib note.mtl
o note
v 0.568960 0.782320 -0.002968
v -0.568960 0.782320 -0.002968
v -0.568960 0.782320 0.002968
v 0.568960 0.782320 0.002968
v -0.568960 -0.782320 -0.002968
v -0.568960 -0.782320 0.002968
v 0.568960 -0.782320 0.002968
v 0.568960 -0.782320 -0.002968
vt 0.000200 0.000200
vt 0.000200 0.333134
vt 0.333134 0.333134
vt 0.333134 0.000200
vt 0.333134 0.999800
vt 0.333134 0.666866
vt 0.000200 0.666866
vt 0.000200 0.999800
vt 0.666467 0.000200
vt 0.333533 0.000200
vt 0.333533 0.333134
vt 0.666467 0.333134
vt 0.333533 0.333533
vt 0.333533 0.666467
vt 0.666467 0.666467
vt 0.666467 0.333533
vt 0.999800 0.333134
vt 0.999800 0.000200
vt 0.666866 0.000200
vt 0.666866 0.333134
vt 0.333134 0.333533
vt 0.000200 0.333533
vt 0.000200 0.666467
vt 0.333134 0.666467
vn -0.0000 1.0000 0.0000
vn -1.0000 -0.0000 0.0000
vn -0.0000 -0.0000 1.0000
vn 0.0000 -1.0000 0.0000
vn 0.0000 0.0000 -1.0000
vn 1.0000 0.0000 0.0000
usemtl Note_Material
s 1
f 1/1/1 2/2/1 3/3/1 4/4/1
f 5/5/2 6/6/2 3/7/2 2/8/2
f 6/9/3 7/10/3 4/11/3 3/12/3
f 7/13/4 6/14/4 5/15/4 8/16/4
f 8/17/5 5/18/5 2/19/5 1/20/5
f 7/21/6 8/22/6 1/23/6 4/24/6
