# Blender v2.93.5 OBJ File: 'closet.blend'
# www.blender.org
mtllib closet_door.mtl
o closet_door_Cube.003
v 0.250000 0.000000 1.000000
v 0.250000 2.000000 1.000000
v 0.250000 0.000000 -1.000000
v 0.250000 2.000000 -1.000000
v 0.300000 0.000000 1.000000
v 0.300000 2.000000 1.000000
v 0.300000 0.000000 -1.000000
v 0.300000 2.000000 -1.000000
v 0.250000 0.000000 0.000000
v 0.250000 2.000000 0.000000
v 0.250000 2.000000 -0.500000
v 0.300000 0.000000 -0.500000
v 0.250000 0.000000 -0.500000
v 0.300000 2.000000 -0.500000
v 0.250000 0.000000 0.500000
v 0.300000 2.000000 0.500000
v 0.250000 2.000000 0.500000
v 0.300000 0.000000 0.500000
v 0.250000 2.000000 0.250000
v 0.300000 0.000000 0.250000
v 0.250000 0.000000 0.250000
v 0.300000 2.000000 0.250000
v 0.250000 0.000000 -0.250000
v 0.300000 2.000000 -0.250000
v 0.250000 2.000000 -0.250000
v 0.300000 0.000000 -0.250000
v 0.250000 2.000000 0.125000
v 0.300000 0.000000 0.125000
v 0.250000 0.000000 0.125000
v 0.300000 2.000000 0.125000
v 0.250000 0.000000 -0.125000
v 0.300000 2.000000 -0.125000
v 0.250000 2.000000 -0.125000
v 0.300000 0.000000 -0.125000
v 0.250000 2.000000 0.062500
v 0.300000 0.000000 0.062500
v 0.250000 0.000000 0.062500
v 0.300000 2.000000 0.062500
v 0.250000 0.000000 -0.062500
v 0.300000 2.000000 -0.062500
v 0.250000 2.000000 -0.062500
v 0.300000 0.000000 -0.062500
v 0.250000 2.000000 0.031250
v 0.300000 0.000000 0.031250
v 0.250000 0.000000 0.031250
v 0.300000 2.000000 0.031250
v 0.250000 0.000000 -0.031250
v 0.300000 2.000000 -0.031250
v 0.250000 2.000000 -0.031250
v 0.300000 0.000000 -0.031250
v 0.275000 0.000000 0.031250
v 0.275000 0.000000 0.000000
v 0.275000 2.000000 -0.031250
v 0.275000 2.000000 0.000000
v 0.275000 2.000000 0.031250
v 0.275000 0.000000 -0.031250
v 0.250000 1.000000 1.000000
v 0.250000 1.000000 -1.000000
v 0.300000 1.000000 -1.000000
v 0.300000 1.000000 1.000000
v 0.300000 1.000000 -0.500000
v 0.300000 1.000000 0.500000
v 0.300000 1.000000 0.250000
v 0.300000 1.000000 -0.250000
v 0.300000 1.000000 0.125000
v 0.300000 1.000000 -0.125000
v 0.300000 1.000000 0.062500
v 0.300000 1.000000 -0.062500
v 0.300000 1.000000 0.031250
v 0.300000 1.000000 -0.031250
v 0.275000 1.000000 0.000000
v 0.275000 1.000000 0.031250
v 0.275000 1.000000 -0.031250
v 0.250000 1.500000 1.000000
v 0.250000 1.500000 -1.000000
v 0.300000 1.500000 -1.000000
v 0.300000 1.500000 1.000000
v 0.300000 1.500000 -0.500000
v 0.300000 1.500000 0.500000
v 0.300000 1.500000 0.250000
v 0.300000 1.500000 -0.250000
v 0.300000 1.500000 0.125000
v 0.300000 1.500000 -0.125000
v 0.300000 1.500000 0.062500
v 0.300000 1.500000 -0.062500
v 0.300000 1.500000 0.031250
v 0.300000 1.500000 -0.031250
v 0.275000 1.500000 0.000000
v 0.275000 1.500000 0.031250
v 0.275000 1.500000 -0.031250
v 0.312500 1.500000 0.062500
v 0.312500 1.000000 0.062500
v 0.312500 1.500000 -0.062500
v 0.312500 1.000000 -0.062500
v 0.312500 1.500000 0.031250
v 0.312500 1.000000 0.031250
v 0.312500 1.500000 -0.031250
v 0.312500 1.000000 -0.031250
vt 0.076829 0.782333
vt 0.076829 0.818953
vt 0.065265 0.818951
vt 0.065265 0.782331
vt 0.746329 0.921275
vt 0.746329 0.983775
vt 0.683829 0.983775
vt 0.683829 0.921275
vt 0.051319 0.782333
vt 0.051319 0.818953
vt 0.039755 0.818951
vt 0.039755 0.782330
vt 0.039260 0.587020
vt 0.050824 0.587022
vt 0.050824 0.623643
vt 0.039260 0.623641
vt 0.056592 0.903426
vt 0.045028 0.903423
vt 0.045028 0.866803
vt 0.056592 0.866805
vt 0.055229 0.519767
vt 0.061017 0.519767
vt 0.061017 0.522058
vt 0.055229 0.522058
vt 0.060926 0.977699
vt 0.055139 0.977699
vt 0.055139 0.975408
vt 0.060926 0.975408
vt 0.386235 0.851238
vt 0.386235 0.893870
vt 0.376053 0.893870
vt 0.376053 0.851238
vt 0.933829 0.921273
vt 0.933829 0.983773
vt 0.871329 0.983774
vt 0.871329 0.921274
vt 0.077196 0.622865
vt 0.065632 0.622862
vt 0.065632 0.586242
vt 0.077196 0.586244
vt 0.059513 0.867007
vt 0.071077 0.867009
vt 0.071077 0.903630
vt 0.059513 0.903628
vt 0.056592 0.921736
vt 0.045028 0.921734
vt 0.039260 0.568710
vt 0.050824 0.568712
vt 0.777579 0.921275
vt 0.777579 0.983775
vt 0.793204 0.921274
vt 0.793204 0.983774
vt 0.039260 0.559555
vt 0.050824 0.559557
vt 0.056592 0.930891
vt 0.045028 0.930889
vt 0.840079 0.983774
vt 0.840079 0.921274
vt 0.065632 0.567932
vt 0.077196 0.567934
vt 0.071077 0.921940
vt 0.059513 0.921938
vt 0.056592 0.935469
vt 0.045028 0.935466
vt 0.039260 0.554977
vt 0.050824 0.554979
vt 0.801016 0.921274
vt 0.801017 0.983774
vt 0.824454 0.983774
vt 0.824454 0.921274
vt 0.065632 0.558776
vt 0.077196 0.558779
vt 0.071077 0.931096
vt 0.059513 0.931093
vt 0.804922 0.921274
vt 0.804923 0.983774
vt 0.039260 0.552420
vt 0.050824 0.552422
vt 0.056593 0.938025
vt 0.045028 0.938023
vt 0.816642 0.983774
vt 0.816641 0.921274
vt 0.065632 0.554199
vt 0.077196 0.554201
vt 0.071077 0.935673
vt 0.059513 0.935671
vt 0.061017 0.524348
vt 0.055229 0.524348
vt 0.055139 0.973117
vt 0.060926 0.973117
vt 0.812735 0.983774
vt 0.812735 0.921274
vt 0.065632 0.551642
vt 0.077196 0.551644
vt 0.071077 0.938230
vt 0.059513 0.938228
vt 0.217350 0.623837
vt 0.217350 0.502741
vt 0.224919 0.502741
vt 0.224919 0.623837
vt 0.232487 0.502741
vt 0.232487 0.623837
vt 0.393818 0.828450
vt 0.393818 0.807134
vt 0.404000 0.807134
vt 0.404000 0.828450
vt 0.393818 0.892398
vt 0.393818 0.849766
vt 0.404000 0.849766
vt 0.404000 0.892398
vt 0.224919 0.987121
vt 0.224919 0.744932
vt 0.232487 0.744932
vt 0.232487 0.987121
vt 0.217350 0.987121
vt 0.217350 0.744932
vt 0.816640 0.733774
vt 0.816641 0.858774
vt 0.812734 0.858774
vt 0.812734 0.733774
vt 0.824452 0.733774
vt 0.824453 0.858774
vt 0.804921 0.733774
vt 0.804922 0.858774
vt 0.801016 0.858774
vt 0.801015 0.733774
vt 0.840077 0.733774
vt 0.840078 0.858774
vt 0.793203 0.858774
vt 0.793202 0.733774
vt 0.871327 0.733774
vt 0.871328 0.858774
vt 0.777578 0.858775
vt 0.777577 0.733775
vt 0.746328 0.858775
vt 0.746327 0.733775
vt 0.933827 0.733773
vt 0.933828 0.858773
vt 0.386235 0.829922
vt 0.376053 0.829922
vt 0.051319 0.672471
vt 0.051319 0.745712
vt 0.039755 0.745710
vt 0.039755 0.672469
vt 0.683828 0.858775
vt 0.683827 0.733775
vt 0.076829 0.672471
vt 0.076829 0.745712
vt 0.065265 0.745710
vt 0.065265 0.672469
vt 0.386235 0.808606
vt 0.376053 0.808606
vt 0.865672 0.349451
vt 0.865672 0.368880
vt 0.846244 0.368880
vt 0.846244 0.349451
vt 0.885120 0.397649
vt 0.885120 0.398863
vt 0.865692 0.398863
vt 0.865692 0.397649
vt 0.855179 0.656250
vt 0.855179 0.593750
vt 0.859086 0.593750
vt 0.859086 0.656250
vt 0.866898 0.656250
vt 0.866898 0.593750
vt 0.870804 0.593750
vt 0.870804 0.656250
vt 0.865672 0.396415
vt 0.865672 0.397630
vt 0.846244 0.397630
vt 0.846244 0.396415
vt 0.865672 0.330003
vt 0.865672 0.349432
vt 0.846244 0.349432
vt 0.846244 0.330003
vt 0.885120 0.396415
vt 0.885120 0.397630
vt 0.865692 0.397630
vt 0.865692 0.396415
vt 0.865672 0.397649
vt 0.865672 0.398863
vt 0.846244 0.398863
vt 0.846244 0.397649
vt 0.885120 0.330003
vt 0.885120 0.349432
vt 0.865692 0.349432
vt 0.865692 0.330003
vt 0.885120 0.349451
vt 0.885120 0.368880
vt 0.865692 0.368880
vt 0.865692 0.349451
vn 0.0000 0.0000 -1.0000
vn 1.0000 0.0000 0.0000
vn 0.0000 0.0000 1.0000
vn 0.0000 -1.0000 0.0000
vn 0.0000 1.0000 0.0000
usemtl Material
s off
f 75/1/1 4/2/1 8/3/1 76/4/1
f 79/5/2 16/6/2 6/7/2 77/8/2
f 77/9/3 6/10/3 2/11/3 74/12/3
f 15/13/4 18/14/4 5/15/4 1/16/4
f 16/17/5 17/18/5 2/19/5 6/20/5
f 51/21/4 45/22/4 9/23/4 52/24/4
f 43/25/5 55/26/5 54/27/5 10/28/5
f 69/29/1 44/30/1 51/31/1 72/32/1
f 76/33/2 8/34/2 14/35/2 78/36/2
f 3/37/4 7/38/4 12/39/4 13/40/4
f 8/41/5 4/42/5 11/43/5 14/44/5
f 22/45/5 19/46/5 17/18/5 16/17/5
f 21/47/4 20/48/4 18/14/4 15/13/4
f 80/49/2 22/50/2 16/6/2 79/5/2
f 82/51/2 30/52/2 22/50/2 80/49/2
f 29/53/4 28/54/4 20/48/4 21/47/4
f 30/55/5 27/56/5 19/46/5 22/45/5
f 78/36/2 14/35/2 24/57/2 81/58/2
f 13/40/4 12/39/4 26/59/4 23/60/4
f 14/44/5 11/43/5 25/61/5 24/62/5
f 38/63/5 35/64/5 27/56/5 30/55/5
f 37/65/4 36/66/4 28/54/4 29/53/4
f 84/67/2 38/68/2 30/52/2 82/51/2
f 81/58/2 24/57/2 32/69/2 83/70/2
f 23/60/4 26/59/4 34/71/4 31/72/4
f 24/62/5 25/61/5 33/73/5 32/74/5
f 86/75/2 46/76/2 38/68/2 84/67/2
f 45/77/4 44/78/4 36/66/4 37/65/4
f 46/79/5 43/80/5 35/64/5 38/63/5
f 83/70/2 32/69/2 40/81/2 85/82/2
f 31/72/4 34/71/4 42/83/4 39/84/4
f 32/74/5 33/73/5 41/85/5 40/86/5
f 47/87/4 56/88/4 52/24/4 9/23/4
f 53/89/5 49/90/5 10/28/5 54/27/5
f 85/82/2 40/81/2 48/91/2 87/92/2
f 39/84/4 42/83/4 50/93/4 47/94/4
f 40/86/5 41/85/5 49/95/5 48/96/5
f 90/97/2 53/98/2 54/99/2 88/100/2
f 88/100/2 54/99/2 55/101/2 89/102/2
f 87/103/3 48/104/3 53/105/3 90/106/3
f 50/107/3 70/108/3 73/109/3 56/110/3
f 52/111/2 71/112/2 72/113/2 51/114/2
f 56/115/2 73/116/2 71/112/2 52/111/2
f 42/117/2 68/118/2 70/119/2 50/120/2
f 34/121/2 66/122/2 68/118/2 42/117/2
f 44/123/2 69/124/2 67/125/2 36/126/2
f 26/127/2 64/128/2 66/122/2 34/121/2
f 36/126/2 67/125/2 65/129/2 28/130/2
f 12/131/2 61/132/2 64/128/2 26/127/2
f 28/130/2 65/129/2 63/133/2 20/134/2
f 20/134/2 63/133/2 62/135/2 18/136/2
f 7/137/2 59/138/2 61/132/2 12/131/2
f 86/139/1 69/29/1 72/32/1 89/140/1
f 5/141/3 60/142/3 57/143/3 1/144/3
f 18/136/2 62/135/2 60/145/2 5/146/2
f 3/147/1 58/148/1 59/149/1 7/150/1
f 46/151/1 86/139/1 89/140/1 55/152/1
f 70/108/3 87/103/3 90/106/3 73/109/3
f 71/112/2 88/100/2 89/102/2 72/113/2
f 73/116/2 90/97/2 88/100/2 71/112/2
f 84/153/3 67/154/3 92/155/3 91/156/3
f 66/122/2 83/70/2 85/82/2 68/118/2
f 86/157/5 84/158/5 91/159/5 95/160/5
f 64/128/2 81/58/2 83/70/2 66/122/2
f 67/125/2 84/67/2 82/51/2 65/129/2
f 61/132/2 78/36/2 81/58/2 64/128/2
f 65/129/2 82/51/2 80/49/2 63/133/2
f 63/133/2 80/49/2 79/5/2 62/135/2
f 59/138/2 76/33/2 78/36/2 61/132/2
f 60/142/3 77/9/3 74/12/3 57/143/3
f 62/135/2 79/5/2 77/8/2 60/145/2
f 58/148/1 75/1/1 76/4/1 59/149/1
f 94/161/2 93/162/2 97/163/2 98/164/2
f 96/165/2 95/166/2 91/167/2 92/168/2
f 67/169/4 69/170/4 96/171/4 92/172/4
f 87/173/3 70/174/3 98/175/3 97/176/3
f 85/177/5 87/178/5 97/179/5 93/180/5
f 70/181/4 68/182/4 94/183/4 98/184/4
f 68/185/1 85/186/1 93/187/1 94/188/1
f 69/189/1 86/190/1 95/191/1 96/192/1
